<mxfile host="Electron" modified="2024-08-12T16:05:51.214Z" agent="Mozilla/5.0 (Macintosh; Intel Mac OS X 10_15_7) AppleWebKit/537.36 (KHTML, like Gecko) draw.io/22.0.3 Chrome/114.0.5735.289 Electron/25.8.4 Safari/537.36" etag="vDam03BaPpLbKNqdQaGj" version="22.0.3" type="device">
  <diagram name="memory" id="HcFsdpITSVkv_VY6bPRf">
    <mxGraphModel dx="3010" dy="1175" grid="1" gridSize="10" guides="1" tooltips="1" connect="1" arrows="1" fold="1" page="1" pageScale="1" pageWidth="1169" pageHeight="827" math="0" shadow="0">
      <root>
        <mxCell id="rhqjgybfDs597_gJBQHo-0" />
        <mxCell id="rhqjgybfDs597_gJBQHo-1" parent="rhqjgybfDs597_gJBQHo-0" />
        <mxCell id="rhqjgybfDs597_gJBQHo-2" value="Chain" style="sketch=0;html=1;aspect=fixed;strokeColor=#6c8ebf;shadow=0;fillColor=#dae8fc;verticalAlign=top;labelPosition=center;verticalLabelPosition=bottom;shape=mxgraph.gcp2.gear_chain;fontSize=18;" parent="rhqjgybfDs597_gJBQHo-1" vertex="1">
          <mxGeometry x="295" y="170" width="50" height="50" as="geometry" />
        </mxCell>
        <mxCell id="rhqjgybfDs597_gJBQHo-3" value="" style="endArrow=none;dashed=1;html=1;strokeColor=#000000;startArrow=none;labelBackgroundColor=none;strokeWidth=2;fontSize=18;" parent="rhqjgybfDs597_gJBQHo-1" source="rhqjgybfDs597_gJBQHo-2" target="rhqjgybfDs597_gJBQHo-2" edge="1">
          <mxGeometry width="50" height="50" relative="1" as="geometry">
            <mxPoint x="608" y="330" as="sourcePoint" />
            <mxPoint x="657" y="330" as="targetPoint" />
            <Array as="points">
              <mxPoint x="240" y="195" />
              <mxPoint x="240" y="350" />
              <mxPoint x="1040" y="350" />
              <mxPoint x="1040" y="195" />
            </Array>
          </mxGeometry>
        </mxCell>
        <mxCell id="rhqjgybfDs597_gJBQHo-4" value="ChatPromptTemplate" style="rounded=1;whiteSpace=wrap;html=1;fontSize=18;align=center;verticalAlign=middle;fillColor=#ffe6cc;strokeColor=#d79b00;" parent="rhqjgybfDs597_gJBQHo-1" vertex="1">
          <mxGeometry x="490" y="250" width="208" height="78.5" as="geometry" />
        </mxCell>
        <mxCell id="rhqjgybfDs597_gJBQHo-5" value="LLM" style="rounded=1;whiteSpace=wrap;html=1;fontSize=18;align=center;verticalAlign=middle;fillColor=#f8cecc;strokeColor=#b85450;" parent="rhqjgybfDs597_gJBQHo-1" vertex="1">
          <mxGeometry x="728" y="250" width="72" height="78.5" as="geometry" />
        </mxCell>
        <mxCell id="rhqjgybfDs597_gJBQHo-13" value="" style="endArrow=classic;html=1;rounded=1;fontSize=18;startSize=8;endSize=8;strokeWidth=2;exitX=1;exitY=0.5;exitDx=0;exitDy=0;entryX=0;entryY=0.5;entryDx=0;entryDy=0;" parent="rhqjgybfDs597_gJBQHo-1" source="Mi84BfwgO3K1j7YWEALQ-15" target="rhqjgybfDs597_gJBQHo-4" edge="1">
          <mxGeometry width="50" height="50" relative="1" as="geometry">
            <mxPoint x="359" y="277.75" as="sourcePoint" />
            <mxPoint x="510" y="300" as="targetPoint" />
            <Array as="points" />
          </mxGeometry>
        </mxCell>
        <mxCell id="rhqjgybfDs597_gJBQHo-15" value="" style="endArrow=classic;html=1;rounded=1;fontSize=18;startSize=8;endSize=8;strokeWidth=2;exitX=1;exitY=0.5;exitDx=0;exitDy=0;entryX=0;entryY=0.5;entryDx=0;entryDy=0;" parent="rhqjgybfDs597_gJBQHo-1" source="rhqjgybfDs597_gJBQHo-5" target="Mi84BfwgO3K1j7YWEALQ-17" edge="1">
          <mxGeometry width="50" height="50" relative="1" as="geometry">
            <mxPoint x="488" y="287.5" as="sourcePoint" />
            <mxPoint x="875" y="263.25" as="targetPoint" />
            <Array as="points" />
          </mxGeometry>
        </mxCell>
        <mxCell id="rhqjgybfDs597_gJBQHo-18" value="" style="endArrow=classic;html=1;rounded=1;fontSize=18;startSize=8;endSize=8;strokeWidth=2;exitX=1;exitY=0.5;exitDx=0;exitDy=0;entryX=0;entryY=0.5;entryDx=0;entryDy=0;" parent="rhqjgybfDs597_gJBQHo-1" source="rhqjgybfDs597_gJBQHo-4" target="rhqjgybfDs597_gJBQHo-5" edge="1">
          <mxGeometry width="50" height="50" relative="1" as="geometry">
            <mxPoint x="798" y="328.5" as="sourcePoint" />
            <mxPoint x="850" y="348.5" as="targetPoint" />
            <Array as="points" />
          </mxGeometry>
        </mxCell>
        <mxCell id="Mi84BfwgO3K1j7YWEALQ-0" value="Input" style="shape=table;startSize=30;container=1;collapsible=1;childLayout=tableLayout;fixedRows=1;rowLines=0;fontStyle=1;align=center;resizeLast=1;html=1;whiteSpace=wrap;fontSize=18;fillColor=#f5f5f5;fontColor=#333333;strokeColor=#666666;rounded=1;" parent="rhqjgybfDs597_gJBQHo-1" vertex="1">
          <mxGeometry x="10" y="259.25" width="180" height="60" as="geometry">
            <mxRectangle x="260" y="220" width="80" height="30" as="alternateBounds" />
          </mxGeometry>
        </mxCell>
        <mxCell id="Mi84BfwgO3K1j7YWEALQ-1" value="" style="shape=tableRow;horizontal=0;startSize=0;swimlaneHead=0;swimlaneBody=0;fillColor=none;collapsible=0;dropTarget=0;points=[[0,0.5],[1,0.5]];portConstraint=eastwest;top=0;left=0;right=0;bottom=0;html=1;fontSize=18;swimlaneLine=1;" parent="Mi84BfwgO3K1j7YWEALQ-0" vertex="1">
          <mxGeometry y="30" width="180" height="30" as="geometry" />
        </mxCell>
        <mxCell id="Mi84BfwgO3K1j7YWEALQ-2" value="content" style="shape=partialRectangle;connectable=0;fillColor=none;top=0;left=0;bottom=0;right=0;fontStyle=1;overflow=hidden;html=1;whiteSpace=wrap;fontSize=18;align=left;" parent="Mi84BfwgO3K1j7YWEALQ-1" vertex="1">
          <mxGeometry width="80" height="30" as="geometry">
            <mxRectangle width="80" height="30" as="alternateBounds" />
          </mxGeometry>
        </mxCell>
        <mxCell id="Mi84BfwgO3K1j7YWEALQ-3" value="query" style="shape=partialRectangle;connectable=0;fillColor=none;top=0;left=0;bottom=0;right=0;align=left;spacingLeft=6;fontStyle=0;overflow=hidden;html=1;whiteSpace=wrap;fontSize=18;" parent="Mi84BfwgO3K1j7YWEALQ-1" vertex="1">
          <mxGeometry x="80" width="100" height="30" as="geometry">
            <mxRectangle width="100" height="30" as="alternateBounds" />
          </mxGeometry>
        </mxCell>
        <mxCell id="Mi84BfwgO3K1j7YWEALQ-7" value="Output" style="shape=table;startSize=30;container=1;collapsible=1;childLayout=tableLayout;fixedRows=1;rowLines=0;fontStyle=1;align=center;resizeLast=1;html=1;whiteSpace=wrap;fontSize=18;fillColor=#f5f5f5;fontColor=#333333;strokeColor=#666666;rounded=1;" parent="rhqjgybfDs597_gJBQHo-1" vertex="1">
          <mxGeometry x="1090" y="244.25" width="180" height="90" as="geometry">
            <mxRectangle x="260" y="220" width="80" height="30" as="alternateBounds" />
          </mxGeometry>
        </mxCell>
        <mxCell id="Mi84BfwgO3K1j7YWEALQ-8" value="" style="shape=tableRow;horizontal=0;startSize=0;swimlaneHead=0;swimlaneBody=0;fillColor=none;collapsible=0;dropTarget=0;points=[[0,0.5],[1,0.5]];portConstraint=eastwest;top=0;left=0;right=0;bottom=0;html=1;fontSize=18;swimlaneLine=1;" parent="Mi84BfwgO3K1j7YWEALQ-7" vertex="1">
          <mxGeometry y="30" width="180" height="30" as="geometry" />
        </mxCell>
        <mxCell id="Mi84BfwgO3K1j7YWEALQ-9" value="content" style="shape=partialRectangle;connectable=0;fillColor=none;top=0;left=0;bottom=0;right=0;fontStyle=1;overflow=hidden;html=1;whiteSpace=wrap;fontSize=18;align=left;" parent="Mi84BfwgO3K1j7YWEALQ-8" vertex="1">
          <mxGeometry width="80" height="30" as="geometry">
            <mxRectangle width="80" height="30" as="alternateBounds" />
          </mxGeometry>
        </mxCell>
        <mxCell id="Mi84BfwgO3K1j7YWEALQ-10" value="query" style="shape=partialRectangle;connectable=0;fillColor=none;top=0;left=0;bottom=0;right=0;align=left;spacingLeft=6;fontStyle=0;overflow=hidden;html=1;whiteSpace=wrap;fontSize=18;" parent="Mi84BfwgO3K1j7YWEALQ-8" vertex="1">
          <mxGeometry x="80" width="100" height="30" as="geometry">
            <mxRectangle width="100" height="30" as="alternateBounds" />
          </mxGeometry>
        </mxCell>
        <mxCell id="Mi84BfwgO3K1j7YWEALQ-11" value="" style="shape=tableRow;horizontal=0;startSize=0;swimlaneHead=0;swimlaneBody=0;fillColor=none;collapsible=0;dropTarget=0;points=[[0,0.5],[1,0.5]];portConstraint=eastwest;top=0;left=0;right=0;bottom=0;html=1;fontSize=18;swimlaneLine=1;swimlaneFillColor=none;" parent="Mi84BfwgO3K1j7YWEALQ-7" vertex="1">
          <mxGeometry y="60" width="180" height="30" as="geometry" />
        </mxCell>
        <mxCell id="Mi84BfwgO3K1j7YWEALQ-12" value="&lt;b style=&quot;font-size: 18px;&quot;&gt;text&lt;/b&gt;" style="shape=partialRectangle;connectable=0;fillColor=none;top=0;left=0;bottom=0;right=0;editable=1;overflow=hidden;html=1;whiteSpace=wrap;fontSize=18;align=left;" parent="Mi84BfwgO3K1j7YWEALQ-11" vertex="1">
          <mxGeometry width="80" height="30" as="geometry">
            <mxRectangle width="80" height="30" as="alternateBounds" />
          </mxGeometry>
        </mxCell>
        <mxCell id="Mi84BfwgO3K1j7YWEALQ-13" value="response" style="shape=partialRectangle;connectable=0;fillColor=none;top=0;left=0;bottom=0;right=0;align=left;spacingLeft=6;overflow=hidden;html=1;whiteSpace=wrap;fontSize=18;" parent="Mi84BfwgO3K1j7YWEALQ-11" vertex="1">
          <mxGeometry x="80" width="100" height="30" as="geometry">
            <mxRectangle width="100" height="30" as="alternateBounds" />
          </mxGeometry>
        </mxCell>
        <mxCell id="Mi84BfwgO3K1j7YWEALQ-15" value="Memory" style="rounded=1;whiteSpace=wrap;html=1;fontSize=18;align=center;verticalAlign=middle;fillColor=#fff2cc;strokeColor=#d6b656;" parent="rhqjgybfDs597_gJBQHo-1" vertex="1">
          <mxGeometry x="280" y="250" width="170" height="78.5" as="geometry" />
        </mxCell>
        <mxCell id="Mi84BfwgO3K1j7YWEALQ-14" value="" style="sketch=0;html=1;aspect=fixed;strokeColor=#BD7000;shadow=0;fillColor=#f0a30a;verticalAlign=top;labelPosition=center;verticalLabelPosition=bottom;shape=mxgraph.gcp2.memory_card;fontSize=18;fontColor=#000000;" parent="rhqjgybfDs597_gJBQHo-1" vertex="1">
          <mxGeometry x="290" y="269.25" width="37.2" height="40" as="geometry" />
        </mxCell>
        <mxCell id="Mi84BfwgO3K1j7YWEALQ-16" value="" style="endArrow=classic;html=1;rounded=1;fontSize=18;startSize=8;endSize=8;strokeWidth=2;exitX=1;exitY=0.5;exitDx=0;exitDy=0;entryX=0;entryY=0.5;entryDx=0;entryDy=0;" parent="rhqjgybfDs597_gJBQHo-1" source="Mi84BfwgO3K1j7YWEALQ-0" target="Mi84BfwgO3K1j7YWEALQ-15" edge="1">
          <mxGeometry width="50" height="50" relative="1" as="geometry">
            <mxPoint x="499" y="299" as="sourcePoint" />
            <mxPoint x="539" y="299" as="targetPoint" />
            <Array as="points" />
          </mxGeometry>
        </mxCell>
        <mxCell id="Mi84BfwgO3K1j7YWEALQ-17" value="Memory" style="rounded=1;whiteSpace=wrap;html=1;fontSize=18;align=center;verticalAlign=middle;fillColor=#fff2cc;strokeColor=#d6b656;" parent="rhqjgybfDs597_gJBQHo-1" vertex="1">
          <mxGeometry x="830" y="250" width="186.6" height="78.5" as="geometry" />
        </mxCell>
        <mxCell id="Mi84BfwgO3K1j7YWEALQ-18" value="" style="sketch=0;html=1;aspect=fixed;strokeColor=#BD7000;shadow=0;fillColor=#f0a30a;verticalAlign=top;labelPosition=center;verticalLabelPosition=bottom;shape=mxgraph.gcp2.memory_card;fontSize=18;fontColor=#000000;" parent="rhqjgybfDs597_gJBQHo-1" vertex="1">
          <mxGeometry x="840" y="269.25" width="37.2" height="40" as="geometry" />
        </mxCell>
        <mxCell id="Mi84BfwgO3K1j7YWEALQ-19" value="" style="endArrow=classic;html=1;rounded=1;fontSize=18;startSize=8;endSize=8;strokeWidth=2;exitX=1;exitY=0.5;exitDx=0;exitDy=0;entryX=0;entryY=0.5;entryDx=0;entryDy=0;" parent="rhqjgybfDs597_gJBQHo-1" source="Mi84BfwgO3K1j7YWEALQ-17" target="Mi84BfwgO3K1j7YWEALQ-8" edge="1">
          <mxGeometry width="50" height="50" relative="1" as="geometry">
            <mxPoint x="788" y="299" as="sourcePoint" />
            <mxPoint x="830" y="299" as="targetPoint" />
            <Array as="points" />
          </mxGeometry>
        </mxCell>
        <mxCell id="2xT3l5YD5dvmgnBOKexs-0" value="Chain" style="sketch=0;html=1;aspect=fixed;strokeColor=#6c8ebf;shadow=0;fillColor=#dae8fc;verticalAlign=top;labelPosition=center;verticalLabelPosition=bottom;shape=mxgraph.gcp2.gear_chain;fontSize=18;" parent="rhqjgybfDs597_gJBQHo-1" vertex="1">
          <mxGeometry x="295" y="540" width="50" height="50" as="geometry" />
        </mxCell>
        <mxCell id="2xT3l5YD5dvmgnBOKexs-1" value="" style="endArrow=none;dashed=1;html=1;strokeColor=#000000;startArrow=none;labelBackgroundColor=none;strokeWidth=2;fontSize=18;" parent="rhqjgybfDs597_gJBQHo-1" source="2xT3l5YD5dvmgnBOKexs-0" target="2xT3l5YD5dvmgnBOKexs-0" edge="1">
          <mxGeometry width="50" height="50" relative="1" as="geometry">
            <mxPoint x="653" y="700" as="sourcePoint" />
            <mxPoint x="702" y="700" as="targetPoint" />
            <Array as="points">
              <mxPoint x="100" y="565" />
              <mxPoint x="100" y="830" />
              <mxPoint x="1180" y="830" />
              <mxPoint x="1180" y="565" />
            </Array>
          </mxGeometry>
        </mxCell>
        <mxCell id="2xT3l5YD5dvmgnBOKexs-2" value="ChatPromptTemplate" style="rounded=1;whiteSpace=wrap;html=1;fontSize=18;align=center;verticalAlign=middle;fillColor=#ffe6cc;strokeColor=#d79b00;" parent="rhqjgybfDs597_gJBQHo-1" vertex="1">
          <mxGeometry x="160" y="685.75" width="250" height="78.5" as="geometry" />
        </mxCell>
        <mxCell id="2xT3l5YD5dvmgnBOKexs-3" value="LLM" style="rounded=1;whiteSpace=wrap;html=1;fontSize=18;align=center;verticalAlign=middle;fillColor=#f8cecc;strokeColor=#b85450;" parent="rhqjgybfDs597_gJBQHo-1" vertex="1">
          <mxGeometry x="460" y="685.75" width="90" height="78.5" as="geometry" />
        </mxCell>
        <mxCell id="2xT3l5YD5dvmgnBOKexs-4" value="" style="endArrow=classic;html=1;rounded=1;fontSize=18;startSize=8;endSize=8;strokeWidth=2;exitX=1;exitY=0.5;exitDx=0;exitDy=0;entryX=0;entryY=0.5;entryDx=0;entryDy=0;" parent="rhqjgybfDs597_gJBQHo-1" source="2xT3l5YD5dvmgnBOKexs-3" target="2xT3l5YD5dvmgnBOKexs-13" edge="1">
          <mxGeometry width="50" height="50" relative="1" as="geometry">
            <mxPoint x="308" y="627.5" as="sourcePoint" />
            <mxPoint x="695" y="603.25" as="targetPoint" />
            <Array as="points" />
          </mxGeometry>
        </mxCell>
        <mxCell id="2xT3l5YD5dvmgnBOKexs-5" value="" style="endArrow=classic;html=1;rounded=1;fontSize=18;startSize=8;endSize=8;strokeWidth=2;exitX=1;exitY=0.5;exitDx=0;exitDy=0;entryX=0;entryY=0.5;entryDx=0;entryDy=0;" parent="rhqjgybfDs597_gJBQHo-1" source="2xT3l5YD5dvmgnBOKexs-2" target="2xT3l5YD5dvmgnBOKexs-3" edge="1">
          <mxGeometry width="50" height="50" relative="1" as="geometry">
            <mxPoint x="550" y="764.25" as="sourcePoint" />
            <mxPoint x="602" y="784.25" as="targetPoint" />
            <Array as="points" />
          </mxGeometry>
        </mxCell>
        <mxCell id="2xT3l5YD5dvmgnBOKexs-6" value="Output" style="shape=table;startSize=30;container=1;collapsible=1;childLayout=tableLayout;fixedRows=1;rowLines=0;fontStyle=1;align=center;resizeLast=1;html=1;whiteSpace=wrap;fontSize=18;fillColor=#f5f5f5;fontColor=#333333;strokeColor=#666666;rounded=1;" parent="rhqjgybfDs597_gJBQHo-1" vertex="1">
          <mxGeometry x="580" y="620" width="189" height="90" as="geometry">
            <mxRectangle x="260" y="220" width="80" height="30" as="alternateBounds" />
          </mxGeometry>
        </mxCell>
        <mxCell id="2xT3l5YD5dvmgnBOKexs-7" value="" style="shape=tableRow;horizontal=0;startSize=0;swimlaneHead=0;swimlaneBody=0;fillColor=none;collapsible=0;dropTarget=0;points=[[0,0.5],[1,0.5]];portConstraint=eastwest;top=0;left=0;right=0;bottom=0;html=1;fontSize=18;swimlaneLine=1;" parent="2xT3l5YD5dvmgnBOKexs-6" vertex="1">
          <mxGeometry y="30" width="189" height="30" as="geometry" />
        </mxCell>
        <mxCell id="2xT3l5YD5dvmgnBOKexs-8" value="content" style="shape=partialRectangle;connectable=0;fillColor=none;top=0;left=0;bottom=0;right=0;fontStyle=1;overflow=hidden;html=1;whiteSpace=wrap;fontSize=18;align=left;" parent="2xT3l5YD5dvmgnBOKexs-7" vertex="1">
          <mxGeometry width="80" height="30" as="geometry">
            <mxRectangle width="80" height="30" as="alternateBounds" />
          </mxGeometry>
        </mxCell>
        <mxCell id="2xT3l5YD5dvmgnBOKexs-9" value="query" style="shape=partialRectangle;connectable=0;fillColor=none;top=0;left=0;bottom=0;right=0;align=left;spacingLeft=6;fontStyle=0;overflow=hidden;html=1;whiteSpace=wrap;fontSize=18;" parent="2xT3l5YD5dvmgnBOKexs-7" vertex="1">
          <mxGeometry x="80" width="109" height="30" as="geometry">
            <mxRectangle width="109" height="30" as="alternateBounds" />
          </mxGeometry>
        </mxCell>
        <mxCell id="2xT3l5YD5dvmgnBOKexs-10" value="" style="shape=tableRow;horizontal=0;startSize=0;swimlaneHead=0;swimlaneBody=0;fillColor=none;collapsible=0;dropTarget=0;points=[[0,0.5],[1,0.5]];portConstraint=eastwest;top=0;left=0;right=0;bottom=0;html=1;fontSize=18;swimlaneLine=1;swimlaneFillColor=none;" parent="2xT3l5YD5dvmgnBOKexs-6" vertex="1">
          <mxGeometry y="60" width="189" height="30" as="geometry" />
        </mxCell>
        <mxCell id="2xT3l5YD5dvmgnBOKexs-11" value="&lt;b style=&quot;font-size: 18px;&quot;&gt;text&lt;/b&gt;" style="shape=partialRectangle;connectable=0;fillColor=none;top=0;left=0;bottom=0;right=0;editable=1;overflow=hidden;html=1;whiteSpace=wrap;fontSize=18;align=left;" parent="2xT3l5YD5dvmgnBOKexs-10" vertex="1">
          <mxGeometry width="80" height="30" as="geometry">
            <mxRectangle width="80" height="30" as="alternateBounds" />
          </mxGeometry>
        </mxCell>
        <mxCell id="2xT3l5YD5dvmgnBOKexs-12" value="response" style="shape=partialRectangle;connectable=0;fillColor=none;top=0;left=0;bottom=0;right=0;align=left;spacingLeft=6;overflow=hidden;html=1;whiteSpace=wrap;fontSize=18;" parent="2xT3l5YD5dvmgnBOKexs-10" vertex="1">
          <mxGeometry x="80" width="109" height="30" as="geometry">
            <mxRectangle width="109" height="30" as="alternateBounds" />
          </mxGeometry>
        </mxCell>
        <mxCell id="2xT3l5YD5dvmgnBOKexs-13" value="" style="rounded=1;whiteSpace=wrap;html=1;fontSize=18;align=center;verticalAlign=middle;fillColor=#fff2cc;strokeColor=#d6b656;" parent="rhqjgybfDs597_gJBQHo-1" vertex="1">
          <mxGeometry x="860" y="645" width="267.5" height="160" as="geometry" />
        </mxCell>
        <mxCell id="2xT3l5YD5dvmgnBOKexs-14" value="" style="sketch=0;html=1;aspect=fixed;strokeColor=#BD7000;shadow=0;fillColor=#f0a30a;verticalAlign=top;labelPosition=center;verticalLabelPosition=bottom;shape=mxgraph.gcp2.memory_card;fontSize=18;fontColor=#000000;" parent="rhqjgybfDs597_gJBQHo-1" vertex="1">
          <mxGeometry x="877.2" y="655" width="28.6" height="30.75" as="geometry" />
        </mxCell>
        <mxCell id="2xT3l5YD5dvmgnBOKexs-15" value="&lt;b style=&quot;font-size: 18px;&quot;&gt;messages&lt;/b&gt;" style="swimlane;fontStyle=0;childLayout=stackLayout;horizontal=1;startSize=26;fillColor=#f0a30a;horizontalStack=0;resizeParent=1;resizeParentMax=0;resizeLast=0;collapsible=1;marginBottom=0;html=1;fontSize=18;rounded=1;fontColor=#000000;strokeColor=#BD7000;" parent="rhqjgybfDs597_gJBQHo-1" vertex="1">
          <mxGeometry x="908.5" y="700" width="200" height="90" as="geometry" />
        </mxCell>
        <mxCell id="2xT3l5YD5dvmgnBOKexs-16" value="Human Message" style="text;strokeColor=none;fillColor=none;align=left;verticalAlign=top;spacingLeft=4;spacingRight=4;overflow=hidden;rotatable=0;points=[[0,0.5],[1,0.5]];portConstraint=eastwest;whiteSpace=wrap;html=1;fontSize=18;" parent="2xT3l5YD5dvmgnBOKexs-15" vertex="1">
          <mxGeometry y="26" width="200" height="26" as="geometry" />
        </mxCell>
        <mxCell id="2xT3l5YD5dvmgnBOKexs-17" value="AI Message" style="text;strokeColor=none;fillColor=none;align=left;verticalAlign=top;spacingLeft=4;spacingRight=4;overflow=hidden;rotatable=0;points=[[0,0.5],[1,0.5]];portConstraint=eastwest;whiteSpace=wrap;html=1;fontSize=18;" parent="2xT3l5YD5dvmgnBOKexs-15" vertex="1">
          <mxGeometry y="52" width="200" height="38" as="geometry" />
        </mxCell>
        <mxCell id="2xT3l5YD5dvmgnBOKexs-18" value="" style="endArrow=classic;html=1;rounded=1;fontSize=18;startSize=8;endSize=8;strokeWidth=1;exitX=1;exitY=0.5;exitDx=0;exitDy=0;entryX=0;entryY=0.5;entryDx=0;entryDy=0;dashed=1;dashPattern=1 1;" parent="rhqjgybfDs597_gJBQHo-1" source="2xT3l5YD5dvmgnBOKexs-7" target="2xT3l5YD5dvmgnBOKexs-16" edge="1">
          <mxGeometry width="50" height="50" relative="1" as="geometry">
            <mxPoint x="608" y="735" as="sourcePoint" />
            <mxPoint x="819" y="735" as="targetPoint" />
            <Array as="points">
              <mxPoint x="789" y="665" />
              <mxPoint x="789" y="739" />
            </Array>
          </mxGeometry>
        </mxCell>
        <mxCell id="2xT3l5YD5dvmgnBOKexs-19" value="" style="endArrow=classic;html=1;rounded=1;fontSize=18;startSize=8;endSize=8;strokeWidth=1;exitX=1;exitY=0.5;exitDx=0;exitDy=0;entryX=0;entryY=0.5;entryDx=0;entryDy=0;dashed=1;dashPattern=1 1;" parent="rhqjgybfDs597_gJBQHo-1" source="2xT3l5YD5dvmgnBOKexs-10" target="2xT3l5YD5dvmgnBOKexs-17" edge="1">
          <mxGeometry width="50" height="50" relative="1" as="geometry">
            <mxPoint x="779" y="675" as="sourcePoint" />
            <mxPoint x="829" y="709" as="targetPoint" />
            <Array as="points">
              <mxPoint x="779" y="695" />
              <mxPoint x="779" y="771" />
            </Array>
          </mxGeometry>
        </mxCell>
        <mxCell id="2xT3l5YD5dvmgnBOKexs-20" value="Chain" style="sketch=0;html=1;aspect=fixed;strokeColor=#6c8ebf;shadow=0;fillColor=#dae8fc;verticalAlign=top;labelPosition=center;verticalLabelPosition=bottom;shape=mxgraph.gcp2.gear_chain;fontSize=18;" parent="rhqjgybfDs597_gJBQHo-1" vertex="1">
          <mxGeometry x="320" y="874" width="50" height="50" as="geometry" />
        </mxCell>
        <mxCell id="2xT3l5YD5dvmgnBOKexs-21" value="" style="endArrow=none;dashed=1;html=1;strokeColor=#000000;startArrow=none;labelBackgroundColor=none;strokeWidth=2;" parent="rhqjgybfDs597_gJBQHo-1" source="2xT3l5YD5dvmgnBOKexs-20" target="2xT3l5YD5dvmgnBOKexs-20" edge="1">
          <mxGeometry width="50" height="50" relative="1" as="geometry">
            <mxPoint x="653" y="1034" as="sourcePoint" />
            <mxPoint x="702" y="1034" as="targetPoint" />
            <Array as="points">
              <mxPoint x="280" y="900" />
              <mxPoint x="280" y="1160" />
              <mxPoint x="1180" y="1164" />
              <mxPoint x="1180" y="900" />
            </Array>
          </mxGeometry>
        </mxCell>
        <mxCell id="2xT3l5YD5dvmgnBOKexs-22" value="ChatPromptTemplate" style="rounded=1;whiteSpace=wrap;html=1;fontSize=18;align=center;verticalAlign=middle;fillColor=#ffe6cc;strokeColor=#d79b00;" parent="rhqjgybfDs597_gJBQHo-1" vertex="1">
          <mxGeometry x="860" y="1020.75" width="190" height="78.5" as="geometry" />
        </mxCell>
        <mxCell id="2xT3l5YD5dvmgnBOKexs-23" value="LLM" style="rounded=1;whiteSpace=wrap;html=1;fontSize=18;align=center;verticalAlign=middle;fillColor=#f8cecc;strokeColor=#b85450;" parent="rhqjgybfDs597_gJBQHo-1" vertex="1">
          <mxGeometry x="1080" y="1020.75" width="74.8" height="78.5" as="geometry" />
        </mxCell>
        <mxCell id="2xT3l5YD5dvmgnBOKexs-24" value="" style="endArrow=classic;html=1;rounded=1;fontSize=18;startSize=8;endSize=8;strokeWidth=2;entryX=0;entryY=0.5;entryDx=0;entryDy=0;exitX=1;exitY=0.5;exitDx=0;exitDy=0;strokeColor=#999999;" parent="rhqjgybfDs597_gJBQHo-1" source="2xT3l5YD5dvmgnBOKexs-33" target="2xT3l5YD5dvmgnBOKexs-22" edge="1">
          <mxGeometry width="50" height="50" relative="1" as="geometry">
            <mxPoint x="755" y="970" as="sourcePoint" />
            <mxPoint x="695" y="990" as="targetPoint" />
            <Array as="points" />
          </mxGeometry>
        </mxCell>
        <mxCell id="2xT3l5YD5dvmgnBOKexs-25" value="" style="endArrow=classic;html=1;rounded=1;fontSize=18;startSize=8;endSize=8;strokeWidth=2;exitX=1;exitY=0.5;exitDx=0;exitDy=0;entryX=0;entryY=0.5;entryDx=0;entryDy=0;" parent="rhqjgybfDs597_gJBQHo-1" source="2xT3l5YD5dvmgnBOKexs-22" target="2xT3l5YD5dvmgnBOKexs-23" edge="1">
          <mxGeometry width="50" height="50" relative="1" as="geometry">
            <mxPoint x="1174.8" y="1099.25" as="sourcePoint" />
            <mxPoint x="1226.8" y="1119.25" as="targetPoint" />
            <Array as="points" />
          </mxGeometry>
        </mxCell>
        <mxCell id="2xT3l5YD5dvmgnBOKexs-26" value="Output" style="shape=table;startSize=30;container=1;collapsible=1;childLayout=tableLayout;fixedRows=1;rowLines=0;fontStyle=1;align=center;resizeLast=1;html=1;whiteSpace=wrap;fontSize=18;fillColor=#f5f5f5;fontColor=#333333;strokeColor=#666666;rounded=1;" parent="rhqjgybfDs597_gJBQHo-1" vertex="1">
          <mxGeometry x="595" y="939" width="245" height="210" as="geometry">
            <mxRectangle x="260" y="220" width="80" height="30" as="alternateBounds" />
          </mxGeometry>
        </mxCell>
        <mxCell id="2xT3l5YD5dvmgnBOKexs-27" value="" style="shape=tableRow;horizontal=0;startSize=0;swimlaneHead=0;swimlaneBody=0;fillColor=none;collapsible=0;dropTarget=0;points=[[0,0.5],[1,0.5]];portConstraint=eastwest;top=0;left=0;right=0;bottom=0;html=1;fontSize=18;swimlaneLine=1;" parent="2xT3l5YD5dvmgnBOKexs-26" vertex="1">
          <mxGeometry y="30" width="245" height="51" as="geometry" />
        </mxCell>
        <mxCell id="2xT3l5YD5dvmgnBOKexs-28" value="content" style="shape=partialRectangle;connectable=0;fillColor=none;top=0;left=0;bottom=0;right=0;fontStyle=1;overflow=hidden;html=1;whiteSpace=wrap;fontSize=18;align=left;" parent="2xT3l5YD5dvmgnBOKexs-27" vertex="1">
          <mxGeometry width="80" height="51" as="geometry">
            <mxRectangle width="80" height="51" as="alternateBounds" />
          </mxGeometry>
        </mxCell>
        <mxCell id="2xT3l5YD5dvmgnBOKexs-29" value="follow up query" style="shape=partialRectangle;connectable=0;fillColor=none;top=0;left=0;bottom=0;right=0;align=left;spacingLeft=6;fontStyle=0;overflow=hidden;html=1;whiteSpace=wrap;fontSize=18;" parent="2xT3l5YD5dvmgnBOKexs-27" vertex="1">
          <mxGeometry x="80" width="165" height="51" as="geometry">
            <mxRectangle width="165" height="51" as="alternateBounds" />
          </mxGeometry>
        </mxCell>
        <mxCell id="2xT3l5YD5dvmgnBOKexs-30" value="" style="shape=tableRow;horizontal=0;startSize=0;swimlaneHead=0;swimlaneBody=0;fillColor=none;collapsible=0;dropTarget=0;points=[[0,0.5],[1,0.5]];portConstraint=eastwest;top=0;left=0;right=0;bottom=0;html=1;fontSize=18;swimlaneLine=1;swimlaneFillColor=none;" parent="2xT3l5YD5dvmgnBOKexs-26" vertex="1">
          <mxGeometry y="81" width="245" height="129" as="geometry" />
        </mxCell>
        <mxCell id="2xT3l5YD5dvmgnBOKexs-31" value="&lt;b style=&quot;font-size: 18px;&quot;&gt;messages&lt;/b&gt;" style="shape=partialRectangle;connectable=0;fillColor=none;top=0;left=0;bottom=0;right=0;editable=1;overflow=hidden;html=1;whiteSpace=wrap;fontSize=18;align=left;" parent="2xT3l5YD5dvmgnBOKexs-30" vertex="1">
          <mxGeometry width="80" height="129" as="geometry">
            <mxRectangle width="80" height="129" as="alternateBounds" />
          </mxGeometry>
        </mxCell>
        <mxCell id="2xT3l5YD5dvmgnBOKexs-32" value="[&lt;br&gt;&amp;nbsp; &amp;nbsp;&quot;query&quot;,&lt;br&gt;&amp;nbsp; &amp;nbsp;&quot;follow up query&quot;&lt;br&gt;]" style="shape=partialRectangle;connectable=0;fillColor=none;top=0;left=0;bottom=0;right=0;align=left;spacingLeft=6;overflow=hidden;html=1;whiteSpace=wrap;fontSize=18;" parent="2xT3l5YD5dvmgnBOKexs-30" vertex="1">
          <mxGeometry x="80" width="165" height="129" as="geometry">
            <mxRectangle width="165" height="129" as="alternateBounds" />
          </mxGeometry>
        </mxCell>
        <mxCell id="2xT3l5YD5dvmgnBOKexs-33" value="" style="rounded=1;whiteSpace=wrap;html=1;fontSize=18;align=center;verticalAlign=middle;fillColor=#fff2cc;strokeColor=#d6b656;" parent="rhqjgybfDs597_gJBQHo-1" vertex="1">
          <mxGeometry x="355" y="980" width="229" height="160" as="geometry" />
        </mxCell>
        <mxCell id="2xT3l5YD5dvmgnBOKexs-34" value="" style="sketch=0;html=1;aspect=fixed;strokeColor=#BD7000;shadow=0;fillColor=#f0a30a;verticalAlign=top;labelPosition=center;verticalLabelPosition=bottom;shape=mxgraph.gcp2.memory_card;fontSize=18;fontColor=#000000;" parent="rhqjgybfDs597_gJBQHo-1" vertex="1">
          <mxGeometry x="365" y="990" width="28.6" height="30.75" as="geometry" />
        </mxCell>
        <mxCell id="2xT3l5YD5dvmgnBOKexs-35" value="&lt;b style=&quot;font-size: 18px;&quot;&gt;messages&lt;/b&gt;" style="swimlane;fontStyle=0;childLayout=stackLayout;horizontal=1;startSize=26;fillColor=#f0a30a;horizontalStack=0;resizeParent=1;resizeParentMax=0;resizeLast=0;collapsible=1;marginBottom=0;html=1;fontSize=18;rounded=1;fontColor=#000000;strokeColor=#BD7000;" parent="rhqjgybfDs597_gJBQHo-1" vertex="1">
          <mxGeometry x="365" y="1035" width="200" height="78" as="geometry" />
        </mxCell>
        <mxCell id="2xT3l5YD5dvmgnBOKexs-36" value="Human Message" style="text;strokeColor=none;fillColor=none;align=left;verticalAlign=top;spacingLeft=4;spacingRight=4;overflow=hidden;rotatable=0;points=[[0,0.5],[1,0.5]];portConstraint=eastwest;whiteSpace=wrap;html=1;fontSize=18;" parent="2xT3l5YD5dvmgnBOKexs-35" vertex="1">
          <mxGeometry y="26" width="200" height="26" as="geometry" />
        </mxCell>
        <mxCell id="2xT3l5YD5dvmgnBOKexs-37" value="AI Message" style="text;strokeColor=none;fillColor=none;align=left;verticalAlign=top;spacingLeft=4;spacingRight=4;overflow=hidden;rotatable=0;points=[[0,0.5],[1,0.5]];portConstraint=eastwest;whiteSpace=wrap;html=1;fontSize=18;" parent="2xT3l5YD5dvmgnBOKexs-35" vertex="1">
          <mxGeometry y="52" width="200" height="26" as="geometry" />
        </mxCell>
        <mxCell id="2xT3l5YD5dvmgnBOKexs-38" value="Input" style="shape=table;startSize=30;container=1;collapsible=1;childLayout=tableLayout;fixedRows=1;rowLines=0;fontStyle=1;align=center;resizeLast=1;html=1;whiteSpace=wrap;fontSize=18;fillColor=#f5f5f5;fontColor=#333333;strokeColor=#666666;rounded=1;" parent="rhqjgybfDs597_gJBQHo-1" vertex="1">
          <mxGeometry x="36" y="1020.75" width="224" height="81" as="geometry">
            <mxRectangle x="260" y="220" width="80" height="30" as="alternateBounds" />
          </mxGeometry>
        </mxCell>
        <mxCell id="2xT3l5YD5dvmgnBOKexs-39" value="" style="shape=tableRow;horizontal=0;startSize=0;swimlaneHead=0;swimlaneBody=0;fillColor=none;collapsible=0;dropTarget=0;points=[[0,0.5],[1,0.5]];portConstraint=eastwest;top=0;left=0;right=0;bottom=0;html=1;fontSize=18;swimlaneLine=1;" parent="2xT3l5YD5dvmgnBOKexs-38" vertex="1">
          <mxGeometry y="30" width="224" height="51" as="geometry" />
        </mxCell>
        <mxCell id="2xT3l5YD5dvmgnBOKexs-40" value="content" style="shape=partialRectangle;connectable=0;fillColor=none;top=0;left=0;bottom=0;right=0;fontStyle=1;overflow=hidden;html=1;whiteSpace=wrap;fontSize=18;align=left;" parent="2xT3l5YD5dvmgnBOKexs-39" vertex="1">
          <mxGeometry width="80" height="51" as="geometry">
            <mxRectangle width="80" height="51" as="alternateBounds" />
          </mxGeometry>
        </mxCell>
        <mxCell id="2xT3l5YD5dvmgnBOKexs-41" value="follow up query" style="shape=partialRectangle;connectable=0;fillColor=none;top=0;left=0;bottom=0;right=0;align=left;spacingLeft=6;fontStyle=0;overflow=hidden;html=1;whiteSpace=wrap;fontSize=18;" parent="2xT3l5YD5dvmgnBOKexs-39" vertex="1">
          <mxGeometry x="80" width="144" height="51" as="geometry">
            <mxRectangle width="144" height="51" as="alternateBounds" />
          </mxGeometry>
        </mxCell>
        <mxCell id="2xT3l5YD5dvmgnBOKexs-42" value="" style="endArrow=classic;html=1;rounded=1;fontSize=12;startSize=8;endSize=8;strokeWidth=2;entryX=0;entryY=0.5;entryDx=0;entryDy=0;exitX=1;exitY=0.5;exitDx=0;exitDy=0;" parent="rhqjgybfDs597_gJBQHo-1" source="2xT3l5YD5dvmgnBOKexs-38" target="2xT3l5YD5dvmgnBOKexs-33" edge="1">
          <mxGeometry width="50" height="50" relative="1" as="geometry">
            <mxPoint x="588" y="1069" as="sourcePoint" />
            <mxPoint x="799" y="1069" as="targetPoint" />
            <Array as="points" />
          </mxGeometry>
        </mxCell>
        <mxCell id="RVAFS3g0nepHtj9z3fw7-0" value="Chain" style="sketch=0;html=1;aspect=fixed;strokeColor=#6c8ebf;shadow=0;fillColor=#dae8fc;verticalAlign=top;labelPosition=center;verticalLabelPosition=bottom;shape=mxgraph.gcp2.gear_chain;fontSize=18;" parent="rhqjgybfDs597_gJBQHo-1" vertex="1">
          <mxGeometry x="710" y="1340.13" width="50" height="50" as="geometry" />
        </mxCell>
        <mxCell id="RVAFS3g0nepHtj9z3fw7-1" value="" style="endArrow=none;dashed=1;html=1;strokeColor=#000000;startArrow=none;labelBackgroundColor=none;strokeWidth=2;fontSize=18;" parent="rhqjgybfDs597_gJBQHo-1" source="RVAFS3g0nepHtj9z3fw7-0" target="RVAFS3g0nepHtj9z3fw7-0" edge="1">
          <mxGeometry width="50" height="50" relative="1" as="geometry">
            <mxPoint x="625.3" y="1363" as="sourcePoint" />
            <mxPoint x="675.3" y="1363" as="targetPoint" />
            <Array as="points">
              <mxPoint x="276.3" y="1363" />
              <mxPoint x="276.3" y="1628" />
              <mxPoint x="1180" y="1630" />
              <mxPoint x="1180" y="1365" />
            </Array>
          </mxGeometry>
        </mxCell>
        <mxCell id="RVAFS3g0nepHtj9z3fw7-2" value="ChatPromptTemplate" style="rounded=1;whiteSpace=wrap;html=1;fontSize=18;align=center;verticalAlign=middle;fillColor=#ffe6cc;strokeColor=#d79b00;" parent="rhqjgybfDs597_gJBQHo-1" vertex="1">
          <mxGeometry x="301.3" y="1385.38" width="238.7" height="34.25" as="geometry" />
        </mxCell>
        <mxCell id="RVAFS3g0nepHtj9z3fw7-3" value="LLM" style="rounded=1;whiteSpace=wrap;html=1;fontSize=18;align=center;verticalAlign=middle;fillColor=#f8cecc;strokeColor=#b85450;" parent="rhqjgybfDs597_gJBQHo-1" vertex="1">
          <mxGeometry x="592.8000000000001" y="1385.3700000000001" width="50" height="34.25" as="geometry" />
        </mxCell>
        <mxCell id="RVAFS3g0nepHtj9z3fw7-4" value="" style="endArrow=classic;html=1;rounded=1;fontSize=18;startSize=8;endSize=8;strokeWidth=2;exitX=0.5;exitY=1;exitDx=0;exitDy=0;entryX=0.5;entryY=0;entryDx=0;entryDy=0;" parent="rhqjgybfDs597_gJBQHo-1" source="RVAFS3g0nepHtj9z3fw7-3" target="RVAFS3g0nepHtj9z3fw7-6" edge="1">
          <mxGeometry width="50" height="50" relative="1" as="geometry">
            <mxPoint x="309.6" y="1425.5" as="sourcePoint" />
            <mxPoint x="696.5999999999999" y="1401.25" as="targetPoint" />
            <Array as="points" />
          </mxGeometry>
        </mxCell>
        <mxCell id="RVAFS3g0nepHtj9z3fw7-5" value="" style="endArrow=classic;html=1;rounded=1;fontSize=18;startSize=8;endSize=8;strokeWidth=2;exitX=1;exitY=0.5;exitDx=0;exitDy=0;entryX=0;entryY=0.5;entryDx=0;entryDy=0;" parent="rhqjgybfDs597_gJBQHo-1" source="RVAFS3g0nepHtj9z3fw7-2" target="RVAFS3g0nepHtj9z3fw7-3" edge="1">
          <mxGeometry width="50" height="50" relative="1" as="geometry">
            <mxPoint x="530.6000000000001" y="1402.505" as="sourcePoint" />
            <mxPoint x="682.5999999999999" y="1483.88" as="targetPoint" />
            <Array as="points" />
          </mxGeometry>
        </mxCell>
        <mxCell id="RVAFS3g0nepHtj9z3fw7-6" value="Output" style="shape=table;startSize=30;container=1;collapsible=1;childLayout=tableLayout;fixedRows=1;rowLines=0;fontStyle=1;align=center;resizeLast=1;html=1;whiteSpace=wrap;fontSize=18;fillColor=#f5f5f5;fontColor=#333333;strokeColor=#666666;rounded=1;" parent="rhqjgybfDs597_gJBQHo-1" vertex="1">
          <mxGeometry x="505.6" y="1498" width="224.4" height="110" as="geometry">
            <mxRectangle x="260" y="220" width="80" height="30" as="alternateBounds" />
          </mxGeometry>
        </mxCell>
        <mxCell id="RVAFS3g0nepHtj9z3fw7-7" value="" style="shape=tableRow;horizontal=0;startSize=0;swimlaneHead=0;swimlaneBody=0;fillColor=none;collapsible=0;dropTarget=0;points=[[0,0.5],[1,0.5]];portConstraint=eastwest;top=0;left=0;right=0;bottom=0;html=1;fontSize=18;swimlaneLine=1;" parent="RVAFS3g0nepHtj9z3fw7-6" vertex="1">
          <mxGeometry y="30" width="224.4" height="50" as="geometry" />
        </mxCell>
        <mxCell id="RVAFS3g0nepHtj9z3fw7-8" value="content" style="shape=partialRectangle;connectable=0;fillColor=none;top=0;left=0;bottom=0;right=0;fontStyle=1;overflow=hidden;html=1;whiteSpace=wrap;fontSize=18;align=left;" parent="RVAFS3g0nepHtj9z3fw7-7" vertex="1">
          <mxGeometry width="80" height="50" as="geometry">
            <mxRectangle width="80" height="50" as="alternateBounds" />
          </mxGeometry>
        </mxCell>
        <mxCell id="RVAFS3g0nepHtj9z3fw7-9" value="And the Earth?" style="shape=partialRectangle;connectable=0;fillColor=none;top=0;left=0;bottom=0;right=0;align=left;spacingLeft=6;fontStyle=0;overflow=hidden;html=1;whiteSpace=wrap;fontSize=18;" parent="RVAFS3g0nepHtj9z3fw7-7" vertex="1">
          <mxGeometry x="80" width="144.4" height="50" as="geometry">
            <mxRectangle width="144.4" height="50" as="alternateBounds" />
          </mxGeometry>
        </mxCell>
        <mxCell id="RVAFS3g0nepHtj9z3fw7-10" value="" style="shape=tableRow;horizontal=0;startSize=0;swimlaneHead=0;swimlaneBody=0;fillColor=none;collapsible=0;dropTarget=0;points=[[0,0.5],[1,0.5]];portConstraint=eastwest;top=0;left=0;right=0;bottom=0;html=1;fontSize=18;swimlaneLine=1;swimlaneFillColor=none;" parent="RVAFS3g0nepHtj9z3fw7-6" vertex="1">
          <mxGeometry y="80" width="224.4" height="30" as="geometry" />
        </mxCell>
        <mxCell id="RVAFS3g0nepHtj9z3fw7-11" value="&lt;b style=&quot;font-size: 18px;&quot;&gt;text&lt;/b&gt;" style="shape=partialRectangle;connectable=0;fillColor=none;top=0;left=0;bottom=0;right=0;editable=1;overflow=hidden;html=1;whiteSpace=wrap;fontSize=18;align=left;" parent="RVAFS3g0nepHtj9z3fw7-10" vertex="1">
          <mxGeometry width="80" height="30" as="geometry">
            <mxRectangle width="80" height="30" as="alternateBounds" />
          </mxGeometry>
        </mxCell>
        <mxCell id="RVAFS3g0nepHtj9z3fw7-12" value="Blue" style="shape=partialRectangle;connectable=0;fillColor=none;top=0;left=0;bottom=0;right=0;align=left;spacingLeft=6;overflow=hidden;html=1;whiteSpace=wrap;fontSize=18;" parent="RVAFS3g0nepHtj9z3fw7-10" vertex="1">
          <mxGeometry x="80" width="144.4" height="30" as="geometry">
            <mxRectangle width="144.4" height="30" as="alternateBounds" />
          </mxGeometry>
        </mxCell>
        <mxCell id="RVAFS3g0nepHtj9z3fw7-13" value="" style="rounded=1;whiteSpace=wrap;html=1;fontSize=18;align=center;verticalAlign=middle;fillColor=#fff2cc;strokeColor=#d6b656;" parent="rhqjgybfDs597_gJBQHo-1" vertex="1">
          <mxGeometry x="790" y="1381" width="303" height="230" as="geometry" />
        </mxCell>
        <mxCell id="RVAFS3g0nepHtj9z3fw7-14" value="" style="sketch=0;html=1;aspect=fixed;strokeColor=#BD7000;shadow=0;fillColor=#f0a30a;verticalAlign=top;labelPosition=center;verticalLabelPosition=bottom;shape=mxgraph.gcp2.memory_card;fontSize=18;fontColor=#000000;" parent="rhqjgybfDs597_gJBQHo-1" vertex="1">
          <mxGeometry x="840" y="1390.13" width="28.6" height="30.75" as="geometry" />
        </mxCell>
        <mxCell id="RVAFS3g0nepHtj9z3fw7-15" value="Input" style="shape=table;startSize=30;container=1;collapsible=1;childLayout=tableLayout;fixedRows=1;rowLines=0;fontStyle=1;align=center;resizeLast=1;html=1;whiteSpace=wrap;fontSize=18;fillColor=#f5f5f5;fontColor=#333333;strokeColor=#666666;rounded=1;" parent="rhqjgybfDs597_gJBQHo-1" vertex="1">
          <mxGeometry x="26" y="1362" width="224" height="81" as="geometry">
            <mxRectangle x="260" y="220" width="80" height="30" as="alternateBounds" />
          </mxGeometry>
        </mxCell>
        <mxCell id="RVAFS3g0nepHtj9z3fw7-16" value="" style="shape=tableRow;horizontal=0;startSize=0;swimlaneHead=0;swimlaneBody=0;fillColor=none;collapsible=0;dropTarget=0;points=[[0,0.5],[1,0.5]];portConstraint=eastwest;top=0;left=0;right=0;bottom=0;html=1;fontSize=18;swimlaneLine=1;" parent="RVAFS3g0nepHtj9z3fw7-15" vertex="1">
          <mxGeometry y="30" width="224" height="51" as="geometry" />
        </mxCell>
        <mxCell id="RVAFS3g0nepHtj9z3fw7-17" value="content" style="shape=partialRectangle;connectable=0;fillColor=none;top=0;left=0;bottom=0;right=0;fontStyle=1;overflow=hidden;html=1;whiteSpace=wrap;fontSize=18;align=left;" parent="RVAFS3g0nepHtj9z3fw7-16" vertex="1">
          <mxGeometry width="80" height="51" as="geometry">
            <mxRectangle width="80" height="51" as="alternateBounds" />
          </mxGeometry>
        </mxCell>
        <mxCell id="RVAFS3g0nepHtj9z3fw7-18" value="And the Earth?" style="shape=partialRectangle;connectable=0;fillColor=none;top=0;left=0;bottom=0;right=0;align=left;spacingLeft=6;fontStyle=0;overflow=hidden;html=1;whiteSpace=wrap;fontSize=18;" parent="RVAFS3g0nepHtj9z3fw7-16" vertex="1">
          <mxGeometry x="80" width="144" height="51" as="geometry">
            <mxRectangle width="144" height="51" as="alternateBounds" />
          </mxGeometry>
        </mxCell>
        <mxCell id="RVAFS3g0nepHtj9z3fw7-19" value="" style="endArrow=classic;html=1;rounded=1;fontSize=18;startSize=8;endSize=8;strokeWidth=2;entryX=0;entryY=0.5;entryDx=0;entryDy=0;exitX=1;exitY=0.5;exitDx=0;exitDy=0;" parent="rhqjgybfDs597_gJBQHo-1" source="RVAFS3g0nepHtj9z3fw7-15" target="RVAFS3g0nepHtj9z3fw7-2" edge="1">
          <mxGeometry width="50" height="50" relative="1" as="geometry">
            <mxPoint x="509" y="1867" as="sourcePoint" />
            <mxPoint x="720" y="1867" as="targetPoint" />
            <Array as="points" />
          </mxGeometry>
        </mxCell>
        <mxCell id="RVAFS3g0nepHtj9z3fw7-20" value="Output" style="shape=table;startSize=30;container=1;collapsible=1;childLayout=tableLayout;fixedRows=1;rowLines=0;fontStyle=1;align=center;resizeLast=1;html=1;whiteSpace=wrap;fontSize=18;fillColor=#f0a30a;fontColor=#000000;strokeColor=#BD7000;rounded=1;" parent="rhqjgybfDs597_gJBQHo-1" vertex="1">
          <mxGeometry x="800" y="1431" width="280" height="140" as="geometry">
            <mxRectangle x="260" y="220" width="80" height="30" as="alternateBounds" />
          </mxGeometry>
        </mxCell>
        <mxCell id="RVAFS3g0nepHtj9z3fw7-21" value="" style="shape=tableRow;horizontal=0;startSize=0;swimlaneHead=0;swimlaneBody=0;fillColor=none;collapsible=0;dropTarget=0;points=[[0,0.5],[1,0.5]];portConstraint=eastwest;top=0;left=0;right=0;bottom=0;html=1;fontSize=18;swimlaneLine=1;" parent="RVAFS3g0nepHtj9z3fw7-20" vertex="1">
          <mxGeometry y="30" width="280" height="60" as="geometry" />
        </mxCell>
        <mxCell id="RVAFS3g0nepHtj9z3fw7-22" value="Human Message" style="shape=partialRectangle;connectable=0;fillColor=none;top=0;left=0;bottom=0;right=0;fontStyle=1;overflow=hidden;html=1;whiteSpace=wrap;fontSize=18;align=left;" parent="RVAFS3g0nepHtj9z3fw7-21" vertex="1">
          <mxGeometry width="110" height="60" as="geometry">
            <mxRectangle width="110" height="60" as="alternateBounds" />
          </mxGeometry>
        </mxCell>
        <mxCell id="RVAFS3g0nepHtj9z3fw7-23" value="What color is Mars?" style="shape=partialRectangle;connectable=0;fillColor=none;top=0;left=0;bottom=0;right=0;align=left;spacingLeft=6;fontStyle=0;overflow=hidden;html=1;whiteSpace=wrap;fontSize=18;" parent="RVAFS3g0nepHtj9z3fw7-21" vertex="1">
          <mxGeometry x="110" width="170" height="60" as="geometry">
            <mxRectangle width="170" height="60" as="alternateBounds" />
          </mxGeometry>
        </mxCell>
        <mxCell id="RVAFS3g0nepHtj9z3fw7-24" value="" style="shape=tableRow;horizontal=0;startSize=0;swimlaneHead=0;swimlaneBody=0;fillColor=none;collapsible=0;dropTarget=0;points=[[0,0.5],[1,0.5]];portConstraint=eastwest;top=0;left=0;right=0;bottom=0;html=1;fontSize=18;swimlaneLine=1;swimlaneFillColor=none;" parent="RVAFS3g0nepHtj9z3fw7-20" vertex="1">
          <mxGeometry y="90" width="280" height="50" as="geometry" />
        </mxCell>
        <mxCell id="RVAFS3g0nepHtj9z3fw7-25" value="&lt;b style=&quot;font-size: 18px;&quot;&gt;AI Message&lt;/b&gt;" style="shape=partialRectangle;connectable=0;fillColor=none;top=0;left=0;bottom=0;right=0;editable=1;overflow=hidden;html=1;whiteSpace=wrap;fontSize=18;align=left;" parent="RVAFS3g0nepHtj9z3fw7-24" vertex="1">
          <mxGeometry width="110" height="50" as="geometry">
            <mxRectangle width="110" height="50" as="alternateBounds" />
          </mxGeometry>
        </mxCell>
        <mxCell id="RVAFS3g0nepHtj9z3fw7-26" value="Red" style="shape=partialRectangle;connectable=0;fillColor=none;top=0;left=0;bottom=0;right=0;align=left;spacingLeft=6;overflow=hidden;html=1;whiteSpace=wrap;fontSize=18;" parent="RVAFS3g0nepHtj9z3fw7-24" vertex="1">
          <mxGeometry x="110" width="170" height="50" as="geometry">
            <mxRectangle width="170" height="50" as="alternateBounds" />
          </mxGeometry>
        </mxCell>
        <mxCell id="RVAFS3g0nepHtj9z3fw7-27" value="" style="endArrow=classic;html=1;rounded=1;fontSize=18;startSize=8;endSize=8;strokeWidth=2;exitX=1;exitY=0.5;exitDx=0;exitDy=0;entryX=0;entryY=0.75;entryDx=0;entryDy=0;" parent="rhqjgybfDs597_gJBQHo-1" source="RVAFS3g0nepHtj9z3fw7-7" target="RVAFS3g0nepHtj9z3fw7-13" edge="1">
          <mxGeometry width="50" height="50" relative="1" as="geometry">
            <mxPoint x="535.3" y="1430" as="sourcePoint" />
            <mxPoint x="1026.3" y="1633" as="targetPoint" />
            <Array as="points" />
          </mxGeometry>
        </mxCell>
        <mxCell id="RVAFS3g0nepHtj9z3fw7-28" value="" style="endArrow=classic;html=1;rounded=1;fontSize=18;startSize=8;endSize=8;strokeWidth=2;exitX=1.004;exitY=0.474;exitDx=0;exitDy=0;exitPerimeter=0;" parent="rhqjgybfDs597_gJBQHo-1" source="RVAFS3g0nepHtj9z3fw7-13" edge="1">
          <mxGeometry width="50" height="50" relative="1" as="geometry">
            <mxPoint x="730" y="1646" as="sourcePoint" />
            <mxPoint x="1200" y="1490" as="targetPoint" />
            <Array as="points" />
          </mxGeometry>
        </mxCell>
        <mxCell id="RVAFS3g0nepHtj9z3fw7-29" value="Chain" style="sketch=0;html=1;aspect=fixed;strokeColor=#6c8ebf;shadow=0;fillColor=#dae8fc;verticalAlign=top;labelPosition=center;verticalLabelPosition=bottom;shape=mxgraph.gcp2.gear_chain;fontSize=18;" parent="rhqjgybfDs597_gJBQHo-1" vertex="1">
          <mxGeometry x="601" y="1673" width="50" height="50" as="geometry" />
        </mxCell>
        <mxCell id="RVAFS3g0nepHtj9z3fw7-30" value="" style="endArrow=none;dashed=1;html=1;strokeColor=#000000;startArrow=none;labelBackgroundColor=none;strokeWidth=2;fontSize=18;" parent="rhqjgybfDs597_gJBQHo-1" source="RVAFS3g0nepHtj9z3fw7-29" target="RVAFS3g0nepHtj9z3fw7-29" edge="1">
          <mxGeometry width="50" height="50" relative="1" as="geometry">
            <mxPoint x="570" y="1833" as="sourcePoint" />
            <mxPoint x="619" y="1833" as="targetPoint" />
            <Array as="points">
              <mxPoint x="252" y="1698" />
              <mxPoint x="252" y="2153" />
              <mxPoint x="1252" y="2153" />
              <mxPoint x="1252" y="1698" />
            </Array>
          </mxGeometry>
        </mxCell>
        <mxCell id="RVAFS3g0nepHtj9z3fw7-31" value="ChatPromptTemplate" style="rounded=1;whiteSpace=wrap;html=1;fontSize=18;align=center;verticalAlign=middle;fillColor=#ffe6cc;strokeColor=#d79b00;" parent="rhqjgybfDs597_gJBQHo-1" vertex="1">
          <mxGeometry x="277" y="1720.38" width="203" height="34.25" as="geometry" />
        </mxCell>
        <mxCell id="RVAFS3g0nepHtj9z3fw7-32" value="LLM" style="rounded=1;whiteSpace=wrap;html=1;fontSize=18;align=center;verticalAlign=middle;fillColor=#f8cecc;strokeColor=#b85450;" parent="rhqjgybfDs597_gJBQHo-1" vertex="1">
          <mxGeometry x="346.05" y="1820" width="66.5" height="40" as="geometry" />
        </mxCell>
        <mxCell id="RVAFS3g0nepHtj9z3fw7-33" value="" style="endArrow=classic;html=1;rounded=1;fontSize=18;startSize=8;endSize=8;strokeWidth=2;exitX=0.5;exitY=1;exitDx=0;exitDy=0;entryX=0.5;entryY=0;entryDx=0;entryDy=0;" parent="rhqjgybfDs597_gJBQHo-1" source="RVAFS3g0nepHtj9z3fw7-32" target="RVAFS3g0nepHtj9z3fw7-35" edge="1">
          <mxGeometry width="50" height="50" relative="1" as="geometry">
            <mxPoint x="225" y="1760.5" as="sourcePoint" />
            <mxPoint x="612" y="1736.25" as="targetPoint" />
            <Array as="points" />
          </mxGeometry>
        </mxCell>
        <mxCell id="RVAFS3g0nepHtj9z3fw7-34" value="" style="endArrow=classic;html=1;rounded=1;fontSize=18;startSize=8;endSize=8;strokeWidth=2;exitX=0.5;exitY=1;exitDx=0;exitDy=0;entryX=0.5;entryY=0;entryDx=0;entryDy=0;" parent="rhqjgybfDs597_gJBQHo-1" source="RVAFS3g0nepHtj9z3fw7-31" target="RVAFS3g0nepHtj9z3fw7-32" edge="1">
          <mxGeometry width="50" height="50" relative="1" as="geometry">
            <mxPoint x="546" y="1798.88" as="sourcePoint" />
            <mxPoint x="598" y="1818.88" as="targetPoint" />
            <Array as="points" />
          </mxGeometry>
        </mxCell>
        <mxCell id="RVAFS3g0nepHtj9z3fw7-35" value="Output" style="shape=table;startSize=30;container=1;collapsible=1;childLayout=tableLayout;fixedRows=1;rowLines=0;fontStyle=1;align=center;resizeLast=1;html=1;whiteSpace=wrap;fontSize=18;fillColor=#f5f5f5;fontColor=#333333;strokeColor=#666666;rounded=1;" parent="rhqjgybfDs597_gJBQHo-1" vertex="1">
          <mxGeometry x="273.8" y="1921" width="211" height="110" as="geometry">
            <mxRectangle x="260" y="220" width="80" height="30" as="alternateBounds" />
          </mxGeometry>
        </mxCell>
        <mxCell id="RVAFS3g0nepHtj9z3fw7-36" value="" style="shape=tableRow;horizontal=0;startSize=0;swimlaneHead=0;swimlaneBody=0;fillColor=none;collapsible=0;dropTarget=0;points=[[0,0.5],[1,0.5]];portConstraint=eastwest;top=0;left=0;right=0;bottom=0;html=1;fontSize=18;swimlaneLine=1;" parent="RVAFS3g0nepHtj9z3fw7-35" vertex="1">
          <mxGeometry y="30" width="211" height="50" as="geometry" />
        </mxCell>
        <mxCell id="RVAFS3g0nepHtj9z3fw7-37" value="content" style="shape=partialRectangle;connectable=0;fillColor=none;top=0;left=0;bottom=0;right=0;fontStyle=1;overflow=hidden;html=1;whiteSpace=wrap;fontSize=18;align=left;" parent="RVAFS3g0nepHtj9z3fw7-36" vertex="1">
          <mxGeometry width="80" height="50" as="geometry">
            <mxRectangle width="80" height="50" as="alternateBounds" />
          </mxGeometry>
        </mxCell>
        <mxCell id="RVAFS3g0nepHtj9z3fw7-38" value="And the Earth?" style="shape=partialRectangle;connectable=0;fillColor=none;top=0;left=0;bottom=0;right=0;align=left;spacingLeft=6;fontStyle=0;overflow=hidden;html=1;whiteSpace=wrap;fontSize=18;" parent="RVAFS3g0nepHtj9z3fw7-36" vertex="1">
          <mxGeometry x="80" width="131" height="50" as="geometry">
            <mxRectangle width="131" height="50" as="alternateBounds" />
          </mxGeometry>
        </mxCell>
        <mxCell id="RVAFS3g0nepHtj9z3fw7-39" value="" style="shape=tableRow;horizontal=0;startSize=0;swimlaneHead=0;swimlaneBody=0;fillColor=none;collapsible=0;dropTarget=0;points=[[0,0.5],[1,0.5]];portConstraint=eastwest;top=0;left=0;right=0;bottom=0;html=1;fontSize=18;swimlaneLine=1;swimlaneFillColor=none;" parent="RVAFS3g0nepHtj9z3fw7-35" vertex="1">
          <mxGeometry y="80" width="211" height="30" as="geometry" />
        </mxCell>
        <mxCell id="RVAFS3g0nepHtj9z3fw7-40" value="&lt;b style=&quot;font-size: 18px;&quot;&gt;text&lt;/b&gt;" style="shape=partialRectangle;connectable=0;fillColor=none;top=0;left=0;bottom=0;right=0;editable=1;overflow=hidden;html=1;whiteSpace=wrap;fontSize=18;align=left;" parent="RVAFS3g0nepHtj9z3fw7-39" vertex="1">
          <mxGeometry width="80" height="30" as="geometry">
            <mxRectangle width="80" height="30" as="alternateBounds" />
          </mxGeometry>
        </mxCell>
        <mxCell id="RVAFS3g0nepHtj9z3fw7-41" value="Blue" style="shape=partialRectangle;connectable=0;fillColor=none;top=0;left=0;bottom=0;right=0;align=left;spacingLeft=6;overflow=hidden;html=1;whiteSpace=wrap;fontSize=18;" parent="RVAFS3g0nepHtj9z3fw7-39" vertex="1">
          <mxGeometry x="80" width="131" height="30" as="geometry">
            <mxRectangle width="131" height="30" as="alternateBounds" />
          </mxGeometry>
        </mxCell>
        <mxCell id="RVAFS3g0nepHtj9z3fw7-42" value="Input" style="shape=table;startSize=30;container=1;collapsible=1;childLayout=tableLayout;fixedRows=1;rowLines=0;fontStyle=1;align=center;resizeLast=1;html=1;whiteSpace=wrap;fontSize=18;fillColor=#f5f5f5;fontColor=#333333;strokeColor=#666666;rounded=1;" parent="rhqjgybfDs597_gJBQHo-1" vertex="1">
          <mxGeometry x="22" y="1697" width="218" height="81" as="geometry">
            <mxRectangle x="260" y="220" width="80" height="30" as="alternateBounds" />
          </mxGeometry>
        </mxCell>
        <mxCell id="RVAFS3g0nepHtj9z3fw7-43" value="" style="shape=tableRow;horizontal=0;startSize=0;swimlaneHead=0;swimlaneBody=0;fillColor=none;collapsible=0;dropTarget=0;points=[[0,0.5],[1,0.5]];portConstraint=eastwest;top=0;left=0;right=0;bottom=0;html=1;fontSize=18;swimlaneLine=1;" parent="RVAFS3g0nepHtj9z3fw7-42" vertex="1">
          <mxGeometry y="30" width="218" height="51" as="geometry" />
        </mxCell>
        <mxCell id="RVAFS3g0nepHtj9z3fw7-44" value="content" style="shape=partialRectangle;connectable=0;fillColor=none;top=0;left=0;bottom=0;right=0;fontStyle=1;overflow=hidden;html=1;whiteSpace=wrap;fontSize=18;align=left;" parent="RVAFS3g0nepHtj9z3fw7-43" vertex="1">
          <mxGeometry width="80" height="51" as="geometry">
            <mxRectangle width="80" height="51" as="alternateBounds" />
          </mxGeometry>
        </mxCell>
        <mxCell id="RVAFS3g0nepHtj9z3fw7-45" value="And the Earth?" style="shape=partialRectangle;connectable=0;fillColor=none;top=0;left=0;bottom=0;right=0;align=left;spacingLeft=6;fontStyle=0;overflow=hidden;html=1;whiteSpace=wrap;fontSize=18;" parent="RVAFS3g0nepHtj9z3fw7-43" vertex="1">
          <mxGeometry x="80" width="138" height="51" as="geometry">
            <mxRectangle width="138" height="51" as="alternateBounds" />
          </mxGeometry>
        </mxCell>
        <mxCell id="RVAFS3g0nepHtj9z3fw7-46" value="" style="endArrow=classic;html=1;rounded=1;fontSize=18;startSize=8;endSize=8;strokeWidth=2;entryX=0;entryY=0.5;entryDx=0;entryDy=0;exitX=1;exitY=0.5;exitDx=0;exitDy=0;" parent="rhqjgybfDs597_gJBQHo-1" source="RVAFS3g0nepHtj9z3fw7-42" target="RVAFS3g0nepHtj9z3fw7-31" edge="1">
          <mxGeometry width="50" height="50" relative="1" as="geometry">
            <mxPoint x="505" y="2202" as="sourcePoint" />
            <mxPoint x="716" y="2202" as="targetPoint" />
            <Array as="points" />
          </mxGeometry>
        </mxCell>
        <mxCell id="RVAFS3g0nepHtj9z3fw7-47" value="" style="endArrow=classic;html=1;rounded=1;fontSize=18;startSize=8;endSize=8;strokeWidth=2;exitX=1;exitY=0.5;exitDx=0;exitDy=0;entryX=0;entryY=0.5;entryDx=0;entryDy=0;" parent="rhqjgybfDs597_gJBQHo-1" source="RVAFS3g0nepHtj9z3fw7-36" target="RVAFS3g0nepHtj9z3fw7-50" edge="1">
          <mxGeometry width="50" height="50" relative="1" as="geometry">
            <mxPoint x="511" y="1853" as="sourcePoint" />
            <mxPoint x="692" y="1976.5" as="targetPoint" />
            <Array as="points" />
          </mxGeometry>
        </mxCell>
        <mxCell id="RVAFS3g0nepHtj9z3fw7-48" value="PromptTemplate" style="swimlane;fontStyle=0;childLayout=stackLayout;horizontal=1;startSize=30;horizontalStack=0;resizeParent=1;resizeParentMax=0;resizeLast=0;collapsible=1;marginBottom=0;whiteSpace=wrap;html=1;fontSize=18;fillColor=#f0a30a;fontColor=#000000;strokeColor=#BD7000;rounded=1;" parent="rhqjgybfDs597_gJBQHo-1" vertex="1">
          <mxGeometry x="756.6" y="1710" width="260" height="190" as="geometry" />
        </mxCell>
        <mxCell id="RVAFS3g0nepHtj9z3fw7-49" value="Summarise the lines of conversation provided, adding onto the previous summary returning a new summary&lt;br style=&quot;font-size: 18px;&quot;&gt;&lt;br style=&quot;font-size: 18px;&quot;&gt;The human asks {content}&lt;br style=&quot;font-size: 18px;&quot;&gt;The AI explains {text}" style="text;strokeColor=none;fillColor=none;align=left;verticalAlign=middle;spacingLeft=4;spacingRight=4;overflow=hidden;points=[[0,0.5],[1,0.5]];portConstraint=eastwest;rotatable=0;whiteSpace=wrap;html=1;fontSize=18;" parent="RVAFS3g0nepHtj9z3fw7-48" vertex="1">
          <mxGeometry y="30" width="260" height="160" as="geometry" />
        </mxCell>
        <mxCell id="RVAFS3g0nepHtj9z3fw7-50" value="ConversationSummaryMemory" style="rounded=1;whiteSpace=wrap;html=1;fontSize=18;align=center;verticalAlign=middle;fillColor=#fff2cc;strokeColor=#d6b656;" parent="rhqjgybfDs597_gJBQHo-1" vertex="1">
          <mxGeometry x="610" y="1926.41" width="285" height="99.18" as="geometry" />
        </mxCell>
        <mxCell id="RVAFS3g0nepHtj9z3fw7-51" value="" style="sketch=0;html=1;aspect=fixed;strokeColor=#BD7000;shadow=0;fillColor=#f0a30a;verticalAlign=top;labelPosition=center;verticalLabelPosition=bottom;shape=mxgraph.gcp2.memory_card;fontSize=18;fontColor=#000000;" parent="rhqjgybfDs597_gJBQHo-1" vertex="1">
          <mxGeometry x="620.7" y="1932.4099999999999" width="28.6" height="30.75" as="geometry" />
        </mxCell>
        <mxCell id="RVAFS3g0nepHtj9z3fw7-52" value="" style="endArrow=classic;html=1;rounded=1;fontSize=18;startSize=8;endSize=8;strokeWidth=2;exitX=1;exitY=0.5;exitDx=0;exitDy=0;" parent="rhqjgybfDs597_gJBQHo-1" source="RVAFS3g0nepHtj9z3fw7-50" edge="1">
          <mxGeometry width="50" height="50" relative="1" as="geometry">
            <mxPoint x="591" y="1986" as="sourcePoint" />
            <mxPoint x="1272" y="1976" as="targetPoint" />
            <Array as="points" />
          </mxGeometry>
        </mxCell>
        <mxCell id="RVAFS3g0nepHtj9z3fw7-53" value="" style="endArrow=classic;html=1;rounded=1;fontSize=18;startSize=8;endSize=8;strokeWidth=2;exitX=0.25;exitY=0;exitDx=0;exitDy=0;entryX=0;entryY=0.5;entryDx=0;entryDy=0;" parent="rhqjgybfDs597_gJBQHo-1" source="RVAFS3g0nepHtj9z3fw7-50" target="RVAFS3g0nepHtj9z3fw7-49" edge="1">
          <mxGeometry width="50" height="50" relative="1" as="geometry">
            <mxPoint x="905" y="1898" as="sourcePoint" />
            <mxPoint x="1002" y="1898" as="targetPoint" />
            <Array as="points">
              <mxPoint x="681" y="1820" />
            </Array>
          </mxGeometry>
        </mxCell>
        <mxCell id="RVAFS3g0nepHtj9z3fw7-54" value="LLM" style="rounded=1;whiteSpace=wrap;html=1;fontSize=18;align=center;verticalAlign=middle;fillColor=#f8cecc;strokeColor=#b85450;" parent="rhqjgybfDs597_gJBQHo-1" vertex="1">
          <mxGeometry x="1047.5" y="1794.1299999999999" width="57" height="51.75" as="geometry" />
        </mxCell>
        <mxCell id="RVAFS3g0nepHtj9z3fw7-55" value="" style="endArrow=classic;html=1;rounded=1;fontSize=18;startSize=8;endSize=8;strokeWidth=2;exitX=1;exitY=0.5;exitDx=0;exitDy=0;entryX=0;entryY=0.5;entryDx=0;entryDy=0;" parent="rhqjgybfDs597_gJBQHo-1" source="RVAFS3g0nepHtj9z3fw7-49" target="RVAFS3g0nepHtj9z3fw7-54" edge="1">
          <mxGeometry width="50" height="50" relative="1" as="geometry">
            <mxPoint x="905" y="1986" as="sourcePoint" />
            <mxPoint x="1282" y="1986" as="targetPoint" />
            <Array as="points" />
          </mxGeometry>
        </mxCell>
        <mxCell id="RVAFS3g0nepHtj9z3fw7-56" value="System" style="swimlane;fontStyle=0;childLayout=stackLayout;horizontal=1;startSize=30;horizontalStack=0;resizeParent=1;resizeParentMax=0;resizeLast=0;collapsible=1;marginBottom=0;whiteSpace=wrap;html=1;fontSize=18;fillColor=#d5e8d4;strokeColor=#82b366;rounded=1;" parent="rhqjgybfDs597_gJBQHo-1" vertex="1">
          <mxGeometry x="920" y="2010" width="312" height="120" as="geometry" />
        </mxCell>
        <mxCell id="RVAFS3g0nepHtj9z3fw7-57" value="The human asks what color Mars is. The AI explains that Mars is Red. The human then asks about Earth, and the AI explains that Earth is Blue." style="text;strokeColor=none;fillColor=none;align=left;verticalAlign=middle;spacingLeft=4;spacingRight=4;overflow=hidden;points=[[0,0.5],[1,0.5]];portConstraint=eastwest;rotatable=0;whiteSpace=wrap;html=1;fontSize=18;" parent="RVAFS3g0nepHtj9z3fw7-56" vertex="1">
          <mxGeometry y="30" width="312" height="90" as="geometry" />
        </mxCell>
        <mxCell id="RVAFS3g0nepHtj9z3fw7-58" value="" style="endArrow=classic;html=1;rounded=1;fontSize=18;startSize=8;endSize=8;strokeWidth=2;exitX=0.5;exitY=1;exitDx=0;exitDy=0;entryX=0.5;entryY=0;entryDx=0;entryDy=0;jumpStyle=arc;" parent="rhqjgybfDs597_gJBQHo-1" source="RVAFS3g0nepHtj9z3fw7-54" target="RVAFS3g0nepHtj9z3fw7-56" edge="1">
          <mxGeometry width="50" height="50" relative="1" as="geometry">
            <mxPoint x="1022" y="1835" as="sourcePoint" />
            <mxPoint x="1092" y="1835" as="targetPoint" />
            <Array as="points" />
          </mxGeometry>
        </mxCell>
        <mxCell id="RVAFS3g0nepHtj9z3fw7-59" value="" style="endArrow=classic;html=1;rounded=1;fontSize=18;startSize=8;endSize=8;strokeWidth=2;exitX=0;exitY=0.5;exitDx=0;exitDy=0;entryX=0.5;entryY=1;entryDx=0;entryDy=0;" parent="rhqjgybfDs597_gJBQHo-1" source="RVAFS3g0nepHtj9z3fw7-57" target="RVAFS3g0nepHtj9z3fw7-50" edge="1">
          <mxGeometry width="50" height="50" relative="1" as="geometry">
            <mxPoint x="1022" y="1835" as="sourcePoint" />
            <mxPoint x="1087" y="1835" as="targetPoint" />
            <Array as="points">
              <mxPoint x="753" y="2083" />
            </Array>
          </mxGeometry>
        </mxCell>
        <mxCell id="RVAFS3g0nepHtj9z3fw7-60" value="Chain" style="sketch=0;html=1;aspect=fixed;strokeColor=#6c8ebf;shadow=0;fillColor=#dae8fc;verticalAlign=top;labelPosition=center;verticalLabelPosition=bottom;shape=mxgraph.gcp2.gear_chain;fontSize=18;" parent="rhqjgybfDs597_gJBQHo-1" vertex="1">
          <mxGeometry x="615" y="2199" width="50" height="50" as="geometry" />
        </mxCell>
        <mxCell id="RVAFS3g0nepHtj9z3fw7-61" value="" style="endArrow=none;dashed=1;html=1;strokeColor=#000000;startArrow=none;labelBackgroundColor=none;strokeWidth=2;fontSize=18;" parent="rhqjgybfDs597_gJBQHo-1" source="RVAFS3g0nepHtj9z3fw7-60" target="RVAFS3g0nepHtj9z3fw7-60" edge="1">
          <mxGeometry width="50" height="50" relative="1" as="geometry">
            <mxPoint x="584" y="2359" as="sourcePoint" />
            <mxPoint x="633" y="2359" as="targetPoint" />
            <Array as="points">
              <mxPoint x="280" y="2224" />
              <mxPoint x="280" y="2490" />
              <mxPoint x="1180" y="2490" />
              <mxPoint x="1180" y="2224" />
            </Array>
          </mxGeometry>
        </mxCell>
        <mxCell id="RVAFS3g0nepHtj9z3fw7-62" value="ChatPromptTemplate" style="rounded=1;whiteSpace=wrap;html=1;fontSize=18;align=center;verticalAlign=middle;fillColor=#ffe6cc;strokeColor=#d79b00;" parent="rhqjgybfDs597_gJBQHo-1" vertex="1">
          <mxGeometry x="840" y="2422.38" width="213" height="34.25" as="geometry" />
        </mxCell>
        <mxCell id="RVAFS3g0nepHtj9z3fw7-63" value="LLM" style="rounded=1;whiteSpace=wrap;html=1;fontSize=18;align=center;verticalAlign=middle;fillColor=#f8cecc;strokeColor=#b85450;" parent="rhqjgybfDs597_gJBQHo-1" vertex="1">
          <mxGeometry x="1083" y="2422.38" width="50" height="34.25" as="geometry" />
        </mxCell>
        <mxCell id="RVAFS3g0nepHtj9z3fw7-64" value="" style="endArrow=classic;html=1;rounded=1;fontSize=18;startSize=8;endSize=8;strokeWidth=2;exitX=1;exitY=0.5;exitDx=0;exitDy=0;entryX=0;entryY=0.5;entryDx=0;entryDy=0;" parent="rhqjgybfDs597_gJBQHo-1" source="RVAFS3g0nepHtj9z3fw7-62" target="RVAFS3g0nepHtj9z3fw7-63" edge="1">
          <mxGeometry width="50" height="50" relative="1" as="geometry">
            <mxPoint x="1153" y="2500.88" as="sourcePoint" />
            <mxPoint x="1205" y="2520.88" as="targetPoint" />
            <Array as="points" />
          </mxGeometry>
        </mxCell>
        <mxCell id="RVAFS3g0nepHtj9z3fw7-65" value="Input" style="shape=table;startSize=30;container=1;collapsible=1;childLayout=tableLayout;fixedRows=1;rowLines=0;fontStyle=1;align=center;resizeLast=1;html=1;whiteSpace=wrap;fontSize=18;fillColor=#f5f5f5;fontColor=#333333;strokeColor=#666666;rounded=1;" parent="rhqjgybfDs597_gJBQHo-1" vertex="1">
          <mxGeometry x="301.3" y="2280" width="467.5" height="153" as="geometry">
            <mxRectangle x="260" y="220" width="80" height="30" as="alternateBounds" />
          </mxGeometry>
        </mxCell>
        <mxCell id="RVAFS3g0nepHtj9z3fw7-66" value="" style="shape=tableRow;horizontal=0;startSize=0;swimlaneHead=0;swimlaneBody=0;fillColor=none;collapsible=0;dropTarget=0;points=[[0,0.5],[1,0.5]];portConstraint=eastwest;top=0;left=0;right=0;bottom=0;html=1;fontSize=18;swimlaneLine=1;" parent="RVAFS3g0nepHtj9z3fw7-65" vertex="1">
          <mxGeometry y="30" width="467.5" height="30" as="geometry" />
        </mxCell>
        <mxCell id="RVAFS3g0nepHtj9z3fw7-67" value="content" style="shape=partialRectangle;connectable=0;fillColor=none;top=0;left=0;bottom=0;right=0;fontStyle=1;overflow=hidden;html=1;whiteSpace=wrap;fontSize=18;align=left;" parent="RVAFS3g0nepHtj9z3fw7-66" vertex="1">
          <mxGeometry width="87.5" height="30" as="geometry">
            <mxRectangle width="87.5" height="30" as="alternateBounds" />
          </mxGeometry>
        </mxCell>
        <mxCell id="RVAFS3g0nepHtj9z3fw7-68" value="And the Earth?" style="shape=partialRectangle;connectable=0;fillColor=none;top=0;left=0;bottom=0;right=0;align=left;spacingLeft=6;fontStyle=0;overflow=hidden;html=1;whiteSpace=wrap;fontSize=18;" parent="RVAFS3g0nepHtj9z3fw7-66" vertex="1">
          <mxGeometry x="87.5" width="380" height="30" as="geometry">
            <mxRectangle width="380" height="30" as="alternateBounds" />
          </mxGeometry>
        </mxCell>
        <mxCell id="RVAFS3g0nepHtj9z3fw7-69" value="" style="shape=tableRow;horizontal=0;startSize=0;swimlaneHead=0;swimlaneBody=0;fillColor=none;collapsible=0;dropTarget=0;points=[[0,0.5],[1,0.5]];portConstraint=eastwest;top=0;left=0;right=0;bottom=0;html=1;fontSize=18;swimlaneLine=1;swimlaneFillColor=none;" parent="RVAFS3g0nepHtj9z3fw7-65" vertex="1">
          <mxGeometry y="60" width="467.5" height="93" as="geometry" />
        </mxCell>
        <mxCell id="RVAFS3g0nepHtj9z3fw7-70" value="&lt;b style=&quot;font-size: 18px;&quot;&gt;memory&lt;/b&gt;" style="shape=partialRectangle;connectable=0;fillColor=none;top=0;left=0;bottom=0;right=0;editable=1;overflow=hidden;html=1;whiteSpace=wrap;fontSize=18;align=left;" parent="RVAFS3g0nepHtj9z3fw7-69" vertex="1">
          <mxGeometry width="87.5" height="93" as="geometry">
            <mxRectangle width="87.5" height="93" as="alternateBounds" />
          </mxGeometry>
        </mxCell>
        <mxCell id="RVAFS3g0nepHtj9z3fw7-71" value="SystemMessage(&quot;The human asks what color Mars is. The AI explains that Mars is Red. The human then asks about Earth, and the AI explains that Earth is Blue.&quot;)" style="shape=partialRectangle;connectable=0;fillColor=none;top=0;left=0;bottom=0;right=0;align=left;spacingLeft=6;overflow=hidden;html=1;whiteSpace=wrap;fontSize=18;" parent="RVAFS3g0nepHtj9z3fw7-69" vertex="1">
          <mxGeometry x="87.5" width="380" height="93" as="geometry">
            <mxRectangle width="380" height="93" as="alternateBounds" />
          </mxGeometry>
        </mxCell>
        <mxCell id="RVAFS3g0nepHtj9z3fw7-72" value="Input" style="shape=table;startSize=30;container=1;collapsible=1;childLayout=tableLayout;fixedRows=1;rowLines=0;fontStyle=1;align=center;resizeLast=1;html=1;whiteSpace=wrap;fontSize=18;fillColor=#f5f5f5;fontColor=#333333;strokeColor=#666666;rounded=1;" parent="rhqjgybfDs597_gJBQHo-1" vertex="1">
          <mxGeometry x="36" y="2399" width="214" height="81" as="geometry">
            <mxRectangle x="260" y="220" width="80" height="30" as="alternateBounds" />
          </mxGeometry>
        </mxCell>
        <mxCell id="RVAFS3g0nepHtj9z3fw7-73" value="" style="shape=tableRow;horizontal=0;startSize=0;swimlaneHead=0;swimlaneBody=0;fillColor=none;collapsible=0;dropTarget=0;points=[[0,0.5],[1,0.5]];portConstraint=eastwest;top=0;left=0;right=0;bottom=0;html=1;fontSize=18;swimlaneLine=1;" parent="RVAFS3g0nepHtj9z3fw7-72" vertex="1">
          <mxGeometry y="30" width="214" height="51" as="geometry" />
        </mxCell>
        <mxCell id="RVAFS3g0nepHtj9z3fw7-74" value="content" style="shape=partialRectangle;connectable=0;fillColor=none;top=0;left=0;bottom=0;right=0;fontStyle=1;overflow=hidden;html=1;whiteSpace=wrap;fontSize=18;align=left;" parent="RVAFS3g0nepHtj9z3fw7-73" vertex="1">
          <mxGeometry width="80" height="51" as="geometry">
            <mxRectangle width="80" height="51" as="alternateBounds" />
          </mxGeometry>
        </mxCell>
        <mxCell id="RVAFS3g0nepHtj9z3fw7-75" value="And the Earth?" style="shape=partialRectangle;connectable=0;fillColor=none;top=0;left=0;bottom=0;right=0;align=left;spacingLeft=6;fontStyle=0;overflow=hidden;html=1;whiteSpace=wrap;fontSize=18;" parent="RVAFS3g0nepHtj9z3fw7-73" vertex="1">
          <mxGeometry x="80" width="134" height="51" as="geometry">
            <mxRectangle width="134" height="51" as="alternateBounds" />
          </mxGeometry>
        </mxCell>
        <mxCell id="RVAFS3g0nepHtj9z3fw7-76" value="" style="endArrow=classic;html=1;rounded=1;fontSize=18;startSize=8;endSize=8;strokeWidth=2;entryX=0;entryY=0.5;entryDx=0;entryDy=0;exitX=1;exitY=0.5;exitDx=0;exitDy=0;" parent="rhqjgybfDs597_gJBQHo-1" source="RVAFS3g0nepHtj9z3fw7-72" target="RVAFS3g0nepHtj9z3fw7-62" edge="1">
          <mxGeometry width="50" height="50" relative="1" as="geometry">
            <mxPoint x="519" y="2904" as="sourcePoint" />
            <mxPoint x="730" y="2904" as="targetPoint" />
            <Array as="points" />
          </mxGeometry>
        </mxCell>
        <mxCell id="RVAFS3g0nepHtj9z3fw7-77" value="ConversationSummaryMemory" style="swimlane;fontStyle=0;childLayout=stackLayout;horizontal=1;startSize=30;horizontalStack=0;resizeParent=1;resizeParentMax=0;resizeLast=0;collapsible=1;marginBottom=0;whiteSpace=wrap;html=1;fontSize=18;fillColor=#f0a30a;fontColor=#000000;strokeColor=#BD7000;rounded=1;" parent="rhqjgybfDs597_gJBQHo-1" vertex="1">
          <mxGeometry x="807.25" y="2260.5" width="278.5" height="150" as="geometry" />
        </mxCell>
        <mxCell id="RVAFS3g0nepHtj9z3fw7-78" value="The human asks what color Mars is. The AI explains that Mars is Red. The human then asks about Earth, and the AI explains that Earth is Blue." style="text;strokeColor=none;fillColor=none;align=left;verticalAlign=middle;spacingLeft=4;spacingRight=4;overflow=hidden;points=[[0,0.5],[1,0.5]];portConstraint=eastwest;rotatable=0;whiteSpace=wrap;html=1;fontSize=18;" parent="RVAFS3g0nepHtj9z3fw7-77" vertex="1">
          <mxGeometry y="30" width="278.5" height="120" as="geometry" />
        </mxCell>
        <mxCell id="RVAFS3g0nepHtj9z3fw7-79" value="" style="endArrow=none;html=1;rounded=0;fontSize=12;startSize=8;endSize=8;strokeWidth=7;strokeColor=#4BA173;" parent="rhqjgybfDs597_gJBQHo-1" edge="1">
          <mxGeometry width="50" height="50" relative="1" as="geometry">
            <mxPoint x="-40" y="40" as="sourcePoint" />
            <mxPoint x="-40" y="37" as="targetPoint" />
            <Array as="points">
              <mxPoint x="1320" y="40" />
              <mxPoint x="1320" y="2560" />
              <mxPoint x="-40" y="2560" />
            </Array>
          </mxGeometry>
        </mxCell>
        <mxCell id="RVAFS3g0nepHtj9z3fw7-81" value="Memory Structure" style="rounded=1;whiteSpace=wrap;html=1;fontSize=18;fillColor=#d5e8d4;strokeColor=#82b366;fontStyle=1" parent="rhqjgybfDs597_gJBQHo-1" vertex="1">
          <mxGeometry x="480" y="80" width="310" height="60" as="geometry" />
        </mxCell>
        <mxCell id="RVAFS3g0nepHtj9z3fw7-82" value="" style="endArrow=none;html=1;rounded=1;fontSize=3;startSize=8;endSize=8;strokeWidth=2;strokeColor=#4BA173;entryX=0;entryY=0.5;entryDx=0;entryDy=0;exitX=1;exitY=0.5;exitDx=0;exitDy=0;" parent="rhqjgybfDs597_gJBQHo-1" source="RVAFS3g0nepHtj9z3fw7-81" target="RVAFS3g0nepHtj9z3fw7-81" edge="1">
          <mxGeometry width="50" height="50" relative="1" as="geometry">
            <mxPoint x="710" y="-674" as="sourcePoint" />
            <mxPoint x="710" y="-677" as="targetPoint" />
            <Array as="points">
              <mxPoint x="1280" y="110" />
              <mxPoint x="1280" y="400" />
              <mxPoint y="400" />
              <mxPoint y="110" />
            </Array>
          </mxGeometry>
        </mxCell>
        <mxCell id="RVAFS3g0nepHtj9z3fw7-83" value="Conversation Buffer Memory" style="rounded=1;whiteSpace=wrap;html=1;fontSize=18;fillColor=#d5e8d4;strokeColor=#82b366;fontStyle=1" parent="rhqjgybfDs597_gJBQHo-1" vertex="1">
          <mxGeometry x="480" y="461" width="310" height="60" as="geometry" />
        </mxCell>
        <mxCell id="RVAFS3g0nepHtj9z3fw7-84" value="" style="endArrow=none;html=1;rounded=1;fontSize=3;startSize=8;endSize=8;strokeWidth=2;strokeColor=#4BA173;entryX=0;entryY=0.5;entryDx=0;entryDy=0;exitX=1;exitY=0.5;exitDx=0;exitDy=0;" parent="rhqjgybfDs597_gJBQHo-1" source="RVAFS3g0nepHtj9z3fw7-83" target="RVAFS3g0nepHtj9z3fw7-83" edge="1">
          <mxGeometry width="50" height="50" relative="1" as="geometry">
            <mxPoint x="710" y="-293" as="sourcePoint" />
            <mxPoint x="710" y="-296" as="targetPoint" />
            <Array as="points">
              <mxPoint x="1280" y="491" />
              <mxPoint x="1280" y="1191" />
              <mxPoint y="1191" />
              <mxPoint y="491" />
            </Array>
          </mxGeometry>
        </mxCell>
        <mxCell id="0B1N-Loa-EZ4j62PVqHc-0" value="Summarization Workflow" style="rounded=1;whiteSpace=wrap;html=1;fontSize=18;fillColor=#d5e8d4;strokeColor=#82b366;fontStyle=1" parent="rhqjgybfDs597_gJBQHo-1" vertex="1">
          <mxGeometry x="476" y="1240" width="310" height="60" as="geometry" />
        </mxCell>
        <mxCell id="0B1N-Loa-EZ4j62PVqHc-1" value="" style="endArrow=none;html=1;rounded=1;fontSize=3;startSize=8;endSize=8;strokeWidth=2;strokeColor=#4BA173;entryX=0;entryY=0.5;entryDx=0;entryDy=0;exitX=1;exitY=0.5;exitDx=0;exitDy=0;" parent="rhqjgybfDs597_gJBQHo-1" source="0B1N-Loa-EZ4j62PVqHc-0" target="0B1N-Loa-EZ4j62PVqHc-0" edge="1">
          <mxGeometry width="50" height="50" relative="1" as="geometry">
            <mxPoint x="710" y="519" as="sourcePoint" />
            <mxPoint x="710" y="516" as="targetPoint" />
            <Array as="points">
              <mxPoint x="1280" y="1270" />
              <mxPoint x="1280" y="2520" />
              <mxPoint y="2519" />
              <mxPoint y="1270" />
            </Array>
          </mxGeometry>
        </mxCell>
        <mxCell id="832xZTP115LNZxd5xSlb-0" value="&lt;b&gt;&lt;font color=&quot;#ffffff&quot;&gt;1&lt;/font&gt;&lt;/b&gt;" style="rounded=1;whiteSpace=wrap;html=1;fontSize=22;fillColor=#CCE5FF;gradientColor=#00366E;strokeColor=none;" vertex="1" parent="rhqjgybfDs597_gJBQHo-1">
          <mxGeometry x="50" y="150" width="40" height="40" as="geometry" />
        </mxCell>
        <mxCell id="832xZTP115LNZxd5xSlb-1" value="&lt;b&gt;&lt;font color=&quot;#ffffff&quot;&gt;2&lt;/font&gt;&lt;/b&gt;" style="rounded=1;whiteSpace=wrap;html=1;fontSize=22;fillColor=#CCE5FF;gradientColor=#00366E;strokeColor=none;" vertex="1" parent="rhqjgybfDs597_gJBQHo-1">
          <mxGeometry x="50" y="570" width="40" height="40" as="geometry" />
        </mxCell>
        <mxCell id="832xZTP115LNZxd5xSlb-2" value="&lt;b&gt;&lt;font color=&quot;#ffffff&quot;&gt;3&lt;/font&gt;&lt;/b&gt;" style="rounded=1;whiteSpace=wrap;html=1;fontSize=22;fillColor=#CCE5FF;gradientColor=#00366E;strokeColor=none;" vertex="1" parent="rhqjgybfDs597_gJBQHo-1">
          <mxGeometry x="50" y="910" width="40" height="40" as="geometry" />
        </mxCell>
        <mxCell id="832xZTP115LNZxd5xSlb-3" value="&lt;b&gt;&lt;font color=&quot;#ffffff&quot;&gt;4&lt;/font&gt;&lt;/b&gt;" style="rounded=1;whiteSpace=wrap;html=1;fontSize=22;fillColor=#CCE5FF;gradientColor=#00366E;strokeColor=none;" vertex="1" parent="rhqjgybfDs597_gJBQHo-1">
          <mxGeometry x="50" y="1470" width="40" height="40" as="geometry" />
        </mxCell>
        <mxCell id="832xZTP115LNZxd5xSlb-4" value="&lt;b&gt;&lt;font color=&quot;#ffffff&quot;&gt;5&lt;/font&gt;&lt;/b&gt;" style="rounded=1;whiteSpace=wrap;html=1;fontSize=22;fillColor=#CCE5FF;gradientColor=#00366E;strokeColor=none;" vertex="1" parent="rhqjgybfDs597_gJBQHo-1">
          <mxGeometry x="50" y="1800.01" width="40" height="40" as="geometry" />
        </mxCell>
        <mxCell id="832xZTP115LNZxd5xSlb-5" value="&lt;b&gt;&lt;font color=&quot;#ffffff&quot;&gt;6&lt;/font&gt;&lt;/b&gt;" style="rounded=1;whiteSpace=wrap;html=1;fontSize=22;fillColor=#CCE5FF;gradientColor=#00366E;strokeColor=none;" vertex="1" parent="rhqjgybfDs597_gJBQHo-1">
          <mxGeometry x="50" y="2230" width="40" height="40" as="geometry" />
        </mxCell>
      </root>
    </mxGraphModel>
  </diagram>
</mxfile>
